<?xml version="1.0" encoding="UTF-8" standalone="no"?>
<!-- Created with Inkscape (http://www.inkscape.org/) -->

<svg
   width="128"
   height="128"
   viewBox="0 0 128 128"
   version="1.1"
   id="svg5"
   inkscape:version="1.2.1 (9c6d41e410, 2022-07-14)"
   sodipodi:docname="pengzu.svg"
   xmlns:inkscape="http://www.inkscape.org/namespaces/inkscape"
   xmlns:sodipodi="http://sodipodi.sourceforge.net/DTD/sodipodi-0.dtd"
   xmlns="http://www.w3.org/2000/svg"
   xmlns:svg="http://www.w3.org/2000/svg">
  <sodipodi:namedview
     id="namedview7"
     pagecolor="#ffffff"
     bordercolor="#666666"
     borderopacity="1.0"
     inkscape:showpageshadow="2"
     inkscape:pageopacity="0.0"
     inkscape:pagecheckerboard="0"
     inkscape:deskcolor="#d1d1d1"
     inkscape:document-units="px"
     showgrid="false"
     inkscape:zoom="6.265625"
     inkscape:cx="64.399002"
     inkscape:cy="64"
     inkscape:window-width="1920"
     inkscape:window-height="1011"
     inkscape:window-x="0"
     inkscape:window-y="0"
     inkscape:window-maximized="1"
     inkscape:current-layer="layer1" />
  <defs
     id="defs2" />
  <g
     inkscape:label="Layer 1"
     inkscape:groupmode="layer"
     id="layer1">
    <path
       style="fill:#ff0a12;stroke-width:1.28596;stroke-linejoin:round;paint-order:fill markers stroke"
       id="path122"
       d="m 51.927927,5.1835466 c -5.533372,3.2232699 -11.09344,6.4011384 -16.600115,9.6698084 -0.197711,0.117353 -0.33136,0.31883 -0.496714,0.47858 -0.285022,0.27536 -0.564982,0.556035 -0.854417,0.826752 -4.695669,4.39198 2.610999,-2.499261 -2.935148,2.651761 -0.579605,0.538314 -1.140656,1.096267 -1.710984,1.6444 -0.560947,0.631533 -1.134076,1.252453 -1.682839,1.894599 -0.657427,0.769299 -2.924979,3.572933 -3.543507,4.317015 -1.62101,1.950059 -3.289945,3.859952 -4.9237,5.799322 -1.295271,1.703214 -2.571156,3.419723 -3.790622,5.178157 -0.740505,1.067788 -1.096765,1.559158 -1.713001,2.65837 -0.192137,0.342725 -0.359545,0.698737 -0.539317,1.048104 -0.494977,1.057249 -0.561853,2.214116 -0.637561,3.358195 0,0 16.746387,-8.41003 16.746387,-8.41003 v 0 c 0.04289,-0.887283 0.21817,-1.727542 0.615909,-2.532557 1.358992,-2.967057 3.273869,-5.625244 5.347218,-8.134171 3.169433,-4.057847 6.309888,-8.168785 10.071812,-11.708511 1.765913,-1.564166 3.545072,-3.089948 5.449411,-4.4859623 5.374905,-3.9401806 15.825053,-7.9615869 -13.610188,7.7235493 0,0 14.807376,-11.9773814 14.807376,-11.9773814 z" />
    <path
       style="fill:#ff0a12;stroke-width:1.28596;stroke-linejoin:round;paint-order:fill markers stroke"
       id="path124"
       d="m 51.91684,37.691699 c -0.387887,0.380128 -0.496785,0.498163 -0.976796,0.896486 -3.633942,3.015522 -7.438227,5.816317 -11.191411,8.679818 -5.39584,4.121905 -10.908887,8.120355 -15.89539,12.74484 -0.553164,0.513005 -1.082966,1.050639 -1.62445,1.575957 -0.403463,0.439899 -0.854257,0.840672 -1.210389,1.319695 -0.861332,1.158554 -1.047335,1.989992 -1.60153,3.339076 -0.929107,2.26174 -1.941644,4.486981 -2.946001,6.715845 -0.651695,1.610921 -1.569327,3.137621 -2.068241,4.811976 -0.260795,0.875229 -0.238129,1.211667 -0.292215,2.075194 0,0 16.606873,-8.371814 16.606873,-8.371814 v 0 c 0.0028,-0.207634 -0.01142,-0.416204 0.0085,-0.622899 0.170512,-1.769983 0.926698,-3.438771 1.459549,-5.112374 0.284391,-0.698642 0.548534,-1.405872 0.853173,-2.095926 1.39373,-3.157002 3.068434,-6.212051 5.391375,-8.786389 0.412875,-0.446199 0.814882,-0.902703 1.23862,-1.338598 4.194382,-4.314695 8.972388,-8.021403 13.734851,-11.675984 1.532493,-1.105923 3.049405,-2.233765 4.597481,-3.317767 3.826113,-2.679143 7.80249,-5.141888 11.563787,-7.913381 0,0 -17.64775,7.076245 -17.64775,7.076245 z" />
    <path
       style="fill:#ff0a12;stroke-width:1.28596;stroke-linejoin:round;paint-order:fill markers stroke"
       id="path126"
       d="m 61.783838,66.821761 c -4.134414,6.338904 -8.706122,12.382845 -13.867955,17.924082 -1.344373,1.443186 -2.758044,2.820229 -4.137067,4.230345 -3.100731,3.105235 -6.385508,6.016989 -9.438149,9.170694 -0.675021,0.69737 -1.324218,1.419279 -1.986328,2.128918 0,0 15.684445,-6.61632 15.684445,-6.61632 v 0 c 0.509588,-0.624985 1.006998,-1.260099 1.528763,-1.874955 2.429666,-2.863169 5.01864,-5.587896 7.537669,-8.370905 4.095007,-4.474922 8.164614,-8.967649 12.141843,-13.548199 2.138696,-2.463123 4.415301,-5.263106 6.723534,-7.602649 0.825539,-0.836736 1.729449,-1.59235 2.594173,-2.388526 0,0 -16.780928,6.947515 -16.780928,6.947515 z" />
    <path
       style="fill:#00ff66;stroke-width:1.28596;stroke-linejoin:round;paint-order:fill markers stroke"
       id="path128"
       d="m 73.230866,26.721813 c 0.237731,-0.0515 0.473547,-0.11281 0.713194,-0.154492 0.654377,-0.113811 1.588327,-0.20787 2.221275,-0.274357 1.732384,-0.181976 2.440235,-0.277421 4.235047,-0.312204 0.757287,-0.01468 1.514775,0.01612 2.272162,0.02419 2.3616,0.164489 4.788961,0.39981 7.033334,1.215561 0.25284,0.0919 0.494587,0.211836 0.741879,0.317755 0.198502,0.122794 0.412976,0.222918 0.595505,0.368403 0.900644,0.717864 1.542882,1.960118 1.937666,2.991825 0.817157,2.135521 1.102146,3.817472 1.62131,6.088565 0.2589,1.343836 0.517799,2.687673 0.776699,4.031508 0.257456,1.414289 0.504821,2.830451 0.772367,4.242865 0.81706,4.31338 0.956831,4.504645 1.613615,8.837331 0.541442,3.571792 0.55389,4.181129 0.87971,7.625312 0.163563,2.269932 0.257199,4.544088 0.357341,6.817438 0.05294,1.201782 0.101247,2.381396 0.237381,3.576704 0.200161,1.044306 0.501762,2.534499 0.599701,3.522264 0.282118,2.845338 0.196298,5.759108 -0.05334,8.602828 -0.07399,0.842866 -0.198434,1.68054 -0.29765,2.52081 -0.387258,2.933107 -1.250973,5.763347 -1.916543,8.637819 -0.03732,0.158326 -0.336579,1.391269 -0.358606,1.614742 -0.03968,0.402542 0.02468,1.509741 0.0292,1.871227 0.03651,2.919933 -0.0691,-0.84759 0.02786,2.187423 0.01435,0.36153 0.01739,0.72369 0.04306,1.0846 0.02787,0.39199 0.183887,1.70951 0.226146,2.11451 0.08354,0.80059 0.143956,1.5943 0.265774,2.39011 0.03203,0.23278 0.06799,0.46505 0.09609,0.69833 0.09219,0.76544 0.04512,0.59108 0.146197,1.34686 0.08606,0.6436 0.171007,0.91955 0.185342,1.60743 0.01014,0.48399 -0.02062,0.96798 -0.03094,1.45196 -0.166084,1.28156 -0.25204,2.27671 -0.585688,3.52983 -0.137156,0.51512 -0.236388,1.05928 -0.513989,1.51437 -0.76565,1.25518 -2.95716,2.22078 -4.204922,2.85277 4.529041,-2.64606 9.058077,-5.29212 13.587117,-7.93818 0,0 -13.884333,11.08853 -13.884333,11.08853 v 0 c 5.589749,-3.16618 11.179493,-6.33236 16.769243,-9.49854 1.21691,-0.83684 2.13813,-1.32377 3.03952,-2.54792 0.87965,-1.19463 0.92967,-1.87364 1.17376,-3.25123 0.10344,-0.58381 0.18424,-1.1714 0.27636,-1.7571 0.11414,-0.63249 0.22826,-1.26498 0.34238,-1.89747 0.12757,-0.62753 0.28929,-1.24907 0.3827,-1.88258 0.20219,-1.37124 -0.10016,-2.70059 -0.3013,-4.049212 -0.12773,-0.744329 -0.3122,-1.477135 -0.43603,-2.221735 -0.1465,-0.880892 -0.14154,-1.061035 -0.19482,-1.970991 -0.0194,-0.33122 -0.0354,-0.662632 -0.053,-0.993949 0.0145,-0.618492 0.0243,-1.509498 0.0828,-2.128704 0.10319,-1.091889 0.38817,-2.158028 0.4478,-3.255972 0.16902,-1.100723 0.39541,-2.203808 0.52645,-3.309152 0.19612,-1.654385 0.15806,-3.327763 0.18579,-4.989339 0.0164,-2.75848 0.005,-5.519344 0.1534,-8.275003 0.4168,-7.722625 0.005,1.276697 0.47013,-5.590793 0.0373,-0.549438 0.0234,-1.101151 0.035,-1.651725 -0.54081,-3.222191 -1.58879,-6.331646 -2.39983,-9.490479 -0.78591,-3.208751 -0.97615,-3.83208 -1.63741,-7.235154 -0.65497,-3.37072 -0.96717,-5.488957 -1.49336,-8.88958 -0.22003,-1.422004 -0.47174,-2.83969 -0.65104,-4.267402 -0.17644,-1.404911 -0.2772,-2.818294 -0.41579,-4.227441 -0.0932,-1.269482 -0.1887,-2.538793 -0.27951,-3.808445 -0.18171,-2.540451 -0.0342,-5.642125 -1.95172,-7.644938 -0.2458,-0.256741 -0.55645,-0.442367 -0.83468,-0.663549 -0.89484,-0.413731 -1.07705,-0.549241 -2.06831,-0.7859 -2.29052,-0.546855 -4.688826,-0.4503 -7.015902,-0.689 -2.769581,-0.146564 -5.537569,-0.320987 -8.306633,-0.455633 0,0 -15.214945,11.334297 -15.214945,11.334297 z" />
  </g>
</svg>
